<?xml version="1.0" encoding="UTF-8"?>
<svg id="_Слой_1" data-name="Слой 1" xmlns="http://www.w3.org/2000/svg" viewBox="0 0 84.68 67.35">
  <defs>
    <style>
      .cls-1 {
        fill: #fff;
      }
    </style>
  </defs>
  <path d="M7.67,.26c9.36,2.96,18.34,6.28,27.36,10.07,13.57,5.85,27.24,12.17,38.89,21.81,12.95,11.07,16.46,23.56-2.13,30.52-12.07,4.25-24.93,5.34-37.62,4.34-10.62-.95-21.85-5.05-16.01-17.96,6.2-12.08,23.11-21.77,34.56-28.5,8.43-4.75,16.97-9.07,25.79-13.06,1.36-.62,2.96-.01,3.57,1.35,.61,1.34,.02,2.92-1.29,3.55-8.4,4.23-16.71,8.88-24.71,13.84-8.17,5.23-31.07,19.63-30.85,29.53,.03-.08-.04-.22-.04-.27,2.52,1.59,6.4,1.92,9.67,2.11,6.7,.27,13.54-.51,20.14-1.78,4.41-.87,8.78-2.09,12.63-3.66,2.2-.95,4.54-2.06,5.56-3.49-.04,.04-.21,.58-.15,.76-5.15-11.39-30.45-22.41-42.79-27.81-8.6-3.62-17.51-7.07-26.29-10.1C-3.23,8.78,.19-1.79,7.67,.26h0Z"/>
</svg>