<svg width="85" height="68" viewBox="0 0 85 68" fill="none" xmlns="http://www.w3.org/2000/svg">
<path d="M7.67 0.259998C17.03 3.22 26.01 6.54 35.03 10.33C48.6 16.18 62.27 22.5 73.92 32.14C86.87 43.21 90.38 55.7 71.79 62.66C59.72 66.91 46.86 68 34.17 67C23.55 66.05 12.32 61.95 18.16 49.04C24.36 36.96 41.27 27.27 52.72 20.54C61.15 15.79 69.69 11.47 78.51 7.48C79.87 6.86 81.47 7.47 82.08 8.83C82.69 10.17 82.1 11.75 80.79 12.38C72.39 16.61 64.08 21.26 56.08 26.22C47.91 31.45 25.01 45.85 25.23 55.75C25.26 55.67 25.19 55.53 25.19 55.48C27.71 57.07 31.59 57.4 34.86 57.59C41.56 57.86 48.4 57.08 55 55.81C59.41 54.94 63.78 53.72 67.63 52.15C69.83 51.2 72.17 50.09 73.19 48.66C73.15 48.7 72.98 49.24 73.04 49.42C67.89 38.03 42.59 27.01 30.25 21.61C21.65 17.99 12.74 14.54 3.96 11.51C-3.23 8.78 0.189998 -1.79 7.67 0.259998Z" fill="url(#paint0_linear_26_2030)"/>
<defs>
<linearGradient id="paint0_linear_26_2030" x1="42.3439" y1="-0.00196838" x2="42.3439" y2="67.3454" gradientUnits="userSpaceOnUse">
<stop stop-color="white"/>
<stop offset="1" stop-color="#A56CD4"/>
</linearGradient>
</defs>
</svg>
